<svg xmlns="http://www.w3.org/2000/svg" xmlns:xlink="http://www.w3.org/1999/xlink" width="500" zoomAndPan="magnify" viewBox="0 0 375 374.999991" height="500" preserveAspectRatio="xMidYMid meet" version="1.0"><defs><filter x="0%" y="0%" width="100%" height="100%" id="081ccb7e99"><feColorMatrix values="0 0 0 0 1 0 0 0 0 1 0 0 0 0 1 0 0 0 1 0" color-interpolation-filters="sRGB"/></filter><mask id="da4d950ebd"><g filter="url(#081ccb7e99)"><rect x="-37.5" width="450" fill="#000000" y="-37.499999" height="449.999989" fill-opacity="0.9765"/></g></mask><clipPath id="db46b1544e"><path d="M 0.648438 0.550781 L 152.148438 0.550781 L 152.148438 138.550781 L 0.648438 138.550781 Z M 0.648438 0.550781 " clip-rule="nonzero"/></clipPath><clipPath id="d5110ddc78"><rect x="0" width="153" y="0" height="139"/></clipPath></defs><g mask="url(#da4d950ebd)"><g transform="matrix(1, 0, 0, 1, 111, 108)"><g clip-path="url(#d5110ddc78)"><path fill="#000000" d="M 56.519531 66.003906 C 51.03125 66.003906 46.582031 70.449219 46.582031 75.9375 C 46.582031 81.425781 51.03125 85.875 56.519531 85.875 C 62.011719 85.875 66.460938 81.425781 66.460938 75.9375 C 66.460938 70.449219 62.011719 66.003906 56.519531 66.003906 " fill-opacity="1" fill-rule="nonzero"/><path fill="#000000" d="M 106.210938 75.9375 C 106.210938 70.449219 101.761719 66.003906 96.273438 66.003906 C 90.785156 66.003906 86.335938 70.449219 86.335938 75.9375 C 86.335938 81.425781 90.785156 85.875 96.273438 85.875 C 101.761719 85.875 106.210938 81.425781 106.210938 75.9375 " fill-opacity="1" fill-rule="nonzero"/><g clip-path="url(#db46b1544e)"><path fill="#000000" d="M 76.398438 0.554688 C 34.582031 0.554688 0.683594 34.4375 0.683594 76.234375 C 0.683594 102.082031 13.644531 124.898438 33.421875 138.550781 C 37.894531 129.898438 46.144531 122.871094 56.472656 118.863281 C 45.558594 114.628906 36.96875 107.023438 32.699219 97.691406 C 24.679688 97.503906 18.234375 90.953125 18.234375 82.894531 C 18.234375 77.167969 21.488281 72.207031 26.242188 69.742188 L 26.242188 41.238281 C 24.304688 40.527344 22.921875 38.667969 22.921875 36.480469 C 22.921875 33.683594 25.1875 31.417969 27.988281 31.417969 C 30.785156 31.417969 33.054688 33.683594 33.054688 36.480469 C 33.054688 38.667969 31.671875 40.527344 29.734375 41.238281 L 29.734375 68.464844 C 30.800781 68.21875 31.90625 68.085938 33.046875 68.085938 L 34.082031 68.085938 C 41.507812 55.015625 57.660156 45.957031 76.398438 45.957031 C 95.136719 45.957031 111.289062 55.015625 118.714844 68.085938 L 119.75 68.085938 C 127.929688 68.085938 134.558594 74.71875 134.558594 82.894531 C 134.558594 90.953125 128.113281 97.503906 120.097656 97.691406 C 115.824219 107.023438 107.234375 114.628906 96.320312 118.863281 C 106.652344 122.871094 114.898438 129.898438 119.375 138.550781 C 139.152344 124.898438 152.109375 102.082031 152.109375 76.234375 C 152.109375 34.4375 118.214844 0.554688 76.398438 0.554688 " fill-opacity="1" fill-rule="nonzero"/></g></g></g></g></svg>